<svg width="177" height="178" viewBox="0 0 177 178" fill="none" xmlns="http://www.w3.org/2000/svg">
<path fill-rule="evenodd" clip-rule="evenodd" d="M88.3945 7.09644C42.3368 7.09644 4.98877 44.692 4.98877 91.0735C4.98877 128.178 28.8871 159.655 62.0267 170.76C66.1937 171.539 67.724 168.939 67.724 166.721C67.724 164.718 67.6467 158.103 67.6108 151.086C44.4072 156.166 39.511 141.178 39.511 141.178C35.7169 131.471 30.2503 128.89 30.2503 128.89C22.6815 123.678 30.8207 123.787 30.8207 123.787C39.1947 124.378 43.6061 132.44 43.6061 132.44C51.0451 145.276 63.1179 141.566 67.8773 139.421C68.6259 133.994 70.7875 130.288 73.1727 128.191C54.6472 126.07 35.1714 118.868 35.1714 86.6902C35.1714 77.5219 38.4309 70.0306 43.7664 64.1482C42.899 62.0345 40.0441 53.4932 44.573 41.926C44.573 41.926 51.5755 39.669 67.5141 50.534C74.1685 48.672 81.305 47.7361 88.3945 47.7041C95.4799 47.7361 102.621 48.6692 109.287 50.5312C125.207 39.6663 132.201 41.9232 132.201 41.9232C136.741 53.4891 133.886 62.0317 133.02 64.1454C138.368 70.0278 141.604 77.5191 141.604 86.6875C141.604 118.942 122.092 126.042 103.52 128.123C106.513 130.729 109.178 135.84 109.178 143.674C109.178 154.91 109.082 163.953 109.082 166.719C109.082 168.954 110.584 171.573 114.811 170.748C147.931 159.631 171.802 128.164 171.802 91.0735C171.8 44.6948 134.456 7.09644 88.3945 7.09644Z" fill="white"/>
<path d="M36.5788 127.668C36.3951 128.085 35.7432 128.21 35.1493 127.925C34.5416 127.653 34.2032 127.084 34.3993 126.665C34.5789 126.234 35.2321 126.116 35.8357 126.404C36.4434 126.678 36.7887 127.252 36.5774 127.669L36.5788 127.668ZM39.9571 131.463C39.5607 131.834 38.7831 131.662 38.2555 131.074C37.7086 130.489 37.6064 129.707 38.011 129.33C38.4226 128.96 39.1767 129.135 39.7237 129.719C40.2679 130.311 40.3756 131.087 39.9585 131.464L39.9571 131.463ZM43.247 136.298C42.736 136.657 41.899 136.322 41.3825 135.575C40.8714 134.827 40.8714 133.93 41.3963 133.572C41.9115 133.214 42.736 133.538 43.2609 134.278C43.7691 135.035 43.7691 135.934 43.247 136.298ZM47.751 140.972C47.2952 141.48 46.3201 141.343 45.6075 140.652C44.8796 139.975 44.6765 139.011 45.1337 138.505C45.5978 137.996 46.577 138.138 47.2939 138.825C48.0217 139.501 48.2413 140.466 47.7538 140.971L47.751 140.972ZM53.9663 143.685C53.7632 144.343 52.8268 144.642 51.8807 144.361C50.9374 144.073 50.32 143.304 50.5134 142.639C50.7067 141.976 51.65 141.666 52.6017 141.965C53.545 142.251 54.1624 143.016 53.9663 143.685ZM60.7934 144.187C60.8168 144.88 60.0158 145.453 59.0255 145.466C58.0269 145.49 57.2189 144.928 57.2092 144.247C57.2092 143.547 57.9937 142.981 58.9909 142.962C59.9812 142.944 60.7947 143.5 60.7947 144.186L60.7934 144.187ZM67.144 143.1C67.2627 143.774 66.5735 144.468 65.5888 144.653C64.6219 144.834 63.7242 144.414 63.5999 143.745C63.4811 143.052 64.1827 142.358 65.1496 142.179C66.1357 142.008 67.0196 142.414 67.144 143.1Z" fill="white"/>
</svg>
